# xmcd
#
# Track frame offsets:
#	150
#	3186
#	5565
#	9631
#	12848
#	16748
#	20648
#	24548
#	28448
#	43375
#	45671
#	47967
#	50215
#	52654
#	58980
#	61171
#	63362
#	65505
#	67648
#	74141
#	78004
#	81867
#	85730
#	89593
#	102889
#	105048
#	107000
#	109159
#	111089
#	117786
#	120451
#	123116
#	125781
#	128446
#	136469
#	140196
#	143923
#	147650
#	151377
#	163224
#	165353
#	167482
#	169558
#	171641
#	178211
#	180699
#	183227
#	185755
#	188283
#	196396
#	198882
#	200681
#	203688
#
# Disc length: 2755 seconds
#
# Revision: 0
# Processed by: cddbd v1.5.2PL0 Copyright (c) Steve Scherf et al.
# Submitted via: EZCDAudioConverter 1.2.3.1
#
DISCID=ec0ac135
DTITLE=John Wheatcroft - Improvising Blues Guitar
DYEAR=1900
DGENRE=Blues
TTITLE0=Mississippi Fred McDowell style
TTITLE1=Lightnin' Hopkins style
TTITLE2=Robert Johnson style
TTITLE3=Question and Answer Phrasing
TTITLE4=Muddy Waters style
TTITLE5=Hubert Sumlin style
TTITLE6=Buddy Guy style
TTITLE7=Mike Bloomfield style
TTITLE8=Rhythm Study:  Chicago Shuffle
TTITLE9=John Lee Hooker style
TTITLE10=B.B. King style
TTITLE11=Albert King style
TTITLE12=Robert Cray style
TTITLE13=Rhythm Study:  Born to Boogie
TTITLE14=T-Bone Walker style
TTITLE15=Freddie King style
TTITLE16=Albert Collins style
TTITLE17=Otis Rush style
TTITLE18=Rhythm Study:  From Seven to Nine
TTITLE19=Eric Clapton style
TTITLE20=Jeff Beck style
TTITLE21=Jimmy Page style
TTITLE22=Peter Green style
TTITLE23=Rhythm Study:  Blues Breaking
TTITLE24=Scotty Moore style
TTITLE25=Chuck Berry style
TTITLE26=Roy Buchanan style
TTITLE27=Danny Gatton style
TTITLE28=Rhythm Study:  Riff Around the Clock
TTITLE29=Jimmie Vaughan style
TTITLE30=Duke Robillard style
TTITLE31=Stevie Ray Vaughan style
TTITLE32=Eric Johnson style
TTITLE33=Rhythm Study:  Pride of Texas
TTITLE34=Jimi Hendrix style
TTITLE35=Gary Moore style
TTITLE36=Walter Trout style
TTITLE37=Joe Bonamassa style
TTITLE38=Rhythm Study:  Voodoo Blaze
TTITLE39=Charlie Christian style
TTITLE40=Wes Montgomery style
TTITLE41=Larry Carlton style
TTITLE42=Robben Ford style
TTITLE43=Rhythm Study:  Boppin' the Blues
TTITLE44=Elmore James style
TTITLE45=Ry Cooder style
TTITLE46=Duane Allman style
TTITLE47=Sonny Landreth style
TTITLE48=Rhythm Study:  Dust Off the Slide
TTITLE49=Bob Brozman style
TTITLE50=Rory Gallagher style
TTITLE51=John Hammond style
TTITLE52=Keb Mo style
EXTD=
EXTT0=
EXTT1=
EXTT2=
EXTT3=
EXTT4=
EXTT5=
EXTT6=
EXTT7=
EXTT8=
EXTT9=
EXTT10=
EXTT11=
EXTT12=
EXTT13=
EXTT14=
EXTT15=
EXTT16=
EXTT17=
EXTT18=
EXTT19=
EXTT20=
EXTT21=
EXTT22=
EXTT23=
EXTT24=
EXTT25=
EXTT26=
EXTT27=
EXTT28=
EXTT29=
EXTT30=
EXTT31=
EXTT32=
EXTT33=
EXTT34=
EXTT35=
EXTT36=
EXTT37=
EXTT38=
EXTT39=
EXTT40=
EXTT41=
EXTT42=
EXTT43=
EXTT44=
EXTT45=
EXTT46=
EXTT47=
EXTT48=
EXTT49=
EXTT50=
EXTT51=
EXTT52=
PLAYORDER=
